<svg width="125" height="173" viewBox="0 0 125 173" fill="none" xmlns="http://www.w3.org/2000/svg">
<g filter="url(#filter0_d_1_11)">
<path d="M106.568 27C111.347 27 114.717 28.1093 116.68 30.328C118.728 32.4613 119.752 35.5333 119.752 39.544V110.456C119.752 116.173 117.32 120.013 112.456 121.976C110.835 122.659 108.872 123 106.568 123H66.12V99.32H75.336V114.296H109.256V77.56H80.2V68.984H109.256V35.704H75.336V50.68H66.12V27H106.568Z" fill="#196D87"/>
<path d="M66.24 132.296H74.56V141H47.68V132.296H55.744V53.704H47.68V45H103.104V68.68H94.4V53.704H66.24V132.296Z" fill="#692F41"/>
<path d="M21.48 114.296H29.544V35.704H13.416V50.808H4.2V27H65.512V50.808H56.168V35.704H40.04V114.296H48.36V123H21.48V114.296Z" fill="#2C753C"/>
</g>
<defs>
<filter id="filter0_d_1_11" x="0.200012" y="27" width="123.552" height="123" filterUnits="userSpaceOnUse" color-interpolation-filters="sRGB">
<feFlood flood-opacity="0" result="BackgroundImageFix"/>
<feColorMatrix in="SourceAlpha" type="matrix" values="0 0 0 0 0 0 0 0 0 0 0 0 0 0 0 0 0 0 127 0" result="hardAlpha"/>
<feOffset dy="5"/>
<feGaussianBlur stdDeviation="2"/>
<feComposite in2="hardAlpha" operator="out"/>
<feColorMatrix type="matrix" values="0 0 0 0 0 0 0 0 0 0 0 0 0 0 0 0 0 0 0.5 0"/>
<feBlend mode="normal" in2="BackgroundImageFix" result="effect1_dropShadow_1_11"/>
<feBlend mode="normal" in="SourceGraphic" in2="effect1_dropShadow_1_11" result="shape"/>
</filter>
</defs>
</svg>
